<?xml version="1.0" encoding="utf-8"?>
<!-- Generator: Adobe Illustrator 27.0.1, SVG Export Plug-In . SVG Version: 6.00 Build 0)  -->
<svg version="1.1" xmlns="http://www.w3.org/2000/svg" xmlns:xlink="http://www.w3.org/1999/xlink" x="0px" y="0px"
	 viewBox="0 0 1200 840" style="enable-background:new 0 0 1200 840;" xml:space="preserve">
<style type="text/css">
	.st0{fill:#129C7C;}
	.st1{display:none;}
	.st2{display:inline;fill:#EC008C;}
</style>
<g id="Layer_1">
	<g>
		<g>
			<g>
				<polygon points="328.18,426.31 434.41,426.31 434.41,387.04 328.18,387.04 328.18,290.85 461.78,290.85 461.78,251.58 
					286.89,251.58 286.89,592.61 465.67,592.61 465.67,553.34 328.18,553.34 				"/>
				<rect x="530.51" y="251.58" width="41.29" height="341.04"/>
				<path d="M812.47,285.29c18.67,0,39.03,4.61,57.3,12.96c14.75,6.94,30.99,18.51,43.43,30.95l3.32,3.32v-52.16l-0.77-0.58
					c-29.79-22.72-62.75-33.76-100.76-33.76c-101.68,0-178.35,76.24-178.35,177.34c0,99.95,75.81,175.32,176.34,175.32
					c21.04,0,62.37-4.32,102.73-33.22l0.81-0.58v-52.2l-3.32,3.32c-7.97,7.97-21.11,19.29-38.44,27.95
					c-19.38,9.97-41.32,15.45-61.79,15.45c-55.65,0-134.03-42.05-134.03-135.54C678.95,346.16,737.6,285.29,812.47,285.29z"/>
			</g>
		</g>
		<g>
			<rect x="842.11" y="20.41" class="st0" width="74.15" height="62.21"/>
			<polygon points="1116.86,245.7 1116.87,758.98 83.13,758.98 83.13,82.62 803.31,82.62 803.31,20.41 20.92,20.41 20.92,821.19 
				1179.08,821.19 1179.07,245.7 			"/>
		</g>
	</g>
</g>
<g id="Layer_2" class="st1">
	<rect x="-5.45" y="420.8" class="st2" width="247.5" height="247.5"/>
	<rect x="957.95" y="421.76" class="st2" width="247.5" height="247.5"/>
	<rect x="458.82" y="-74.2" class="st2" width="247.5" height="247.5"/>
	<rect x="465.14" y="668.3" class="st2" width="247.5" height="247.5"/>
</g>
</svg>
