<?xml version="1.0" encoding="utf-8" standalone="yes"?>
<!DOCTYPE svg PUBLIC "-//W3C//DTD SVG 1.1//EN" "http://www.w3.org/Graphics/SVG/1.1/DTD/svg11.dtd">
<svg width="888" height="516" viewBox="0 0 888 516" style="fill:none;stroke:none;fill-rule:evenodd;clip-rule:evenodd;stroke-linecap:round;stroke-linejoin:round;stroke-miterlimit:1.5;" version="1.1" xmlns="http://www.w3.org/2000/svg" xmlns:xlink="http://www.w3.org/1999/xlink"><style class="text-font-style fontImports" data-font-family="Roboto">@import url('https://fonts.googleapis.com/css2?family=Roboto:wght@400;700&amp;display=block');</style><rect id="" x="0" y="0" width="888" height="516" style="fill: #ffffff;"></rect><g id="items" style="isolation: isolate"><g id="blend" style="mix-blend-mode: normal"><g id="g-root-tf_1qbcpydlz3ked-fill" data-item-order="-458208"><g id="tf_1qbcpydlz3ked-fill" stroke="none" fill="#ffffff"><g><path d="M 0 0L 888 0L 888 516L 0 516Z"></path></g></g></g><g id="g-root-3.cu_sy_143095xlz277s-fill" data-item-order="-71910" transform="translate(385.9998779296875, 97.99993896484375)"><g id="3.cu_sy_143095xlz277s-fill" stroke="none" fill="#92bd39"><g><path d="M 34 10L 34 178L 10 178L 58 225.746L 106 178L 82 178L 82 10L 34 10Z"></path></g></g></g><g id="g-root-2.cu_sy_143095xlz277t-fill" data-item-order="-71906" transform="translate(469.999755859375, 97.99993896484375)"><g id="2.cu_sy_143095xlz277t-fill" stroke="none" fill="#3cc583"><g><path d="M 10 34L 10 10L 57.9998 10L 57.9998 34C 57.9998 53.8822 74.1184 70 94.0006 70L 94.0006 47.3309L 140.67 94L 94.0007 140.669L 94.0007 118C 47.6087 118 10 80.3919 10 34Z"></path></g></g></g><g id="g-root-1.cu_sy_zn6r1hlz2802-fill" data-item-order="-71902" transform="translate(267.3319091796875, 97.99993896484375)"><g id="1.cu_sy_zn6r1hlz2802-fill" stroke="none" fill="#4e88e7"><g><path d="M 140.67 34L 140.67 10L 92.6699 10L 92.6699 34C 92.6699 53.8822 76.5513 70 56.6691 70L 56.6691 47.3309L 10 94L 56.669 140.669L 56.669 118C 103.061 118 140.67 80.3919 140.67 34Z"></path></g></g></g><g id="g-root-tx_howoften_4lp6cllz25mp-fill" data-item-order="0" transform="translate(272, 38)"><g id="tx_howoften_4lp6cllz25mp-fill" stroke="none" fill="#484848"><g><text style="font: bold 20px Roboto, sans-serif; white-space: pre;" font-weight="bold" font-size="20px" font-family="Roboto, sans-serif"><tspan x="11.82" y="33.5" dominant-baseline="ideographic">How often should ad campaigns be </tspan><tspan x="42.66" y="57.5" dominant-baseline="ideographic">optimized based on budget?</tspan></text></g></g></g><g id="g-root-tx_monthlyo_90w7dxlz2808-fill" data-item-order="0" transform="translate(50, 169.99993896484375)"><g id="tx_monthlyo_90w7dxlz2808-fill" stroke="none" fill="#4e88e7"><g><text style="font: bold 20px Roboto, sans-serif; white-space: pre;" font-weight="bold" font-size="20px" font-family="Roboto, sans-serif"><tspan x="18.5" y="33.5" dominant-baseline="ideographic">Monthly Optimization</tspan></text></g></g></g><g id="g-root-sket_m8lv8llz3mkk-fill" data-item-order="0" transform="translate(296, 163.99993896484375)"></g><g id="g-root-2_hznl2dlz27m3-fill" data-item-order="0" transform="translate(536, 163.99993896484375)"></g><g id="g-root-tx_weeklyop_qs67vplz25n0-fill" data-item-order="0" transform="translate(614, 169.99993896484375)"><g id="tx_weeklyop_qs67vplz25n0-fill" stroke="none" fill="#92bd39"><g><text style="font: bold 20px Roboto, sans-serif; white-space: pre;" font-weight="bold" font-size="20px" font-family="Roboto, sans-serif"><tspan x="12" y="33.5" dominant-baseline="ideographic">Weekly Optimization</tspan></text></g></g></g><g id="g-root-tx_suitable_dgppidlz277z-fill" data-item-order="0" transform="translate(14, 205.99993896484375)"><g id="tx_suitable_dgppidlz277z-fill" stroke="none" fill="#3a4455"><g><text style="font: 20px Roboto, sans-serif; white-space: pre;" font-size="20px" font-family="Roboto, sans-serif"><tspan x="13.13" y="33.5" dominant-baseline="ideographic">Suitable for budgets under </tspan><tspan x="28.77" y="57.5" dominant-baseline="ideographic">$10,000, providing a less </tspan><tspan x="57.2" y="81.5" dominant-baseline="ideographic">frequent optimization </tspan><tspan x="162.54" y="105.5" dominant-baseline="ideographic">schedule.</tspan></text></g></g></g><g id="g-root-tx_recommen_zn6r1hlz2803-fill" data-item-order="0" transform="translate(614, 205.99993896484375)"><g id="tx_recommen_zn6r1hlz2803-fill" stroke="none" fill="#424736"><g><text style="font: 20px Roboto, sans-serif; white-space: pre;" font-size="20px" font-family="Roboto, sans-serif"><tspan x="12" y="33.5" dominant-baseline="ideographic">Recommended for budgets </tspan><tspan x="12" y="57.5" dominant-baseline="ideographic">over $75,000, allowing for </tspan><tspan x="12" y="81.5" dominant-baseline="ideographic">rapid adjustments and </tspan><tspan x="12" y="105.5" dominant-baseline="ideographic">optimizations.</tspan></text></g></g></g><g id="g-root-modu_1ur682tlz268a-fill" data-item-order="0" transform="translate(416, 247.99993896484375)"></g><g id="g-root-tx_biweekly_dgppidlz277y-fill" data-item-order="0" transform="translate(326, 325.99993896484375)"><g id="tx_biweekly_dgppidlz277y-fill" stroke="none" fill="#3cc583"><g><text style="font: bold 20px Roboto, sans-serif; white-space: pre;" font-weight="bold" font-size="20px" font-family="Roboto, sans-serif"><tspan x="14.39" y="33.5" dominant-baseline="ideographic">2x/Month Optimization</tspan></text></g></g></g><g id="g-root-tx_idealfor_mccpr9lz26f9-fill" data-item-order="0" transform="translate(314, 361.99993896484375)"><g id="tx_idealfor_mccpr9lz26f9-fill" stroke="none" fill="#374840"><g><text style="font: 20px Roboto, sans-serif; white-space: pre;" font-size="20px" font-family="Roboto, sans-serif"><tspan x="12.02" y="33.5" dominant-baseline="ideographic">Ideal for budgets between </tspan><tspan x="32.61" y="57.5" dominant-baseline="ideographic">$10,000 and $75,000, </tspan><tspan x="18.64" y="81.5" dominant-baseline="ideographic">balancing frequency and </tspan><tspan x="39.98" y="105.5" dominant-baseline="ideographic">resource allocation.</tspan></text></g></g></g><g id="g-root-tf_1qbcpydlz3ked-stroke" data-item-order="-458208"></g><g id="g-root-3.cu_sy_143095xlz277s-stroke" data-item-order="-71910" transform="translate(385.9998779296875, 97.99993896484375)"><g id="3.cu_sy_143095xlz277s-stroke" fill="none" stroke-linecap="round" stroke-linejoin="round" stroke-miterlimit="4" stroke="#ffffff" stroke-width="2"><g><path d="M 34 10L 34 178L 10 178L 58 225.7461L 106 178L 82 178L 82 10L 34 10Z"></path></g></g></g><g id="g-root-2.cu_sy_143095xlz277t-stroke" data-item-order="-71906" transform="translate(469.999755859375, 97.99993896484375)"><g id="2.cu_sy_143095xlz277t-stroke" fill="none" stroke-linecap="round" stroke-linejoin="round" stroke-miterlimit="4" stroke="#ffffff" stroke-width="2"><g><path d="M 10 34L 10 10L 57.9998 10L 57.9998 34C 57.9998 53.8822 74.1184 70 94.0006 70L 94.0006 47.3309L 140.6697 94L 94.0007 140.669L 94.0007 117.9999C 47.6087 117.9999 10 80.3919 10 34Z"></path></g></g></g><g id="g-root-1.cu_sy_zn6r1hlz2802-stroke" data-item-order="-71902" transform="translate(267.3319091796875, 97.99993896484375)"><g id="1.cu_sy_zn6r1hlz2802-stroke" fill="none" stroke-linecap="round" stroke-linejoin="round" stroke-miterlimit="4" stroke="#ffffff" stroke-width="2"><g><path d="M 140.6697 34L 140.6697 10L 92.6699 10L 92.6699 34C 92.6699 53.8822 76.5513 70 56.6691 70L 56.6691 47.3309L 10 94L 56.669 140.669L 56.669 117.9999C 103.061 117.9999 140.6697 80.3919 140.6697 34Z"></path></g></g></g><g id="g-root-tx_howoften_4lp6cllz25mp-stroke" data-item-order="0" transform="translate(272, 38)"></g><g id="g-root-tx_monthlyo_90w7dxlz2808-stroke" data-item-order="0" transform="translate(50, 169.99993896484375)"></g><g id="g-root-sket_m8lv8llz3mkk-stroke" data-item-order="0" transform="translate(296, 163.99993896484375)"><g id="sket_m8lv8llz3mkk-stroke" fill="none" stroke-linecap="round" stroke-linejoin="round" stroke-miterlimit="4" stroke="#ffffff" stroke-width="2"><g><path d="M 44.635147 41.052551C 44.635147 42.709301 43.292049 44.052551 41.635147 44.052551L 14.36212 44.052551C 12.705265 44.052551 11.362124 42.709301 11.362124 41.052551L 11.362124 17.77282C 11.362124 16.11598 12.705265 14.77282 14.36212 14.77282L 41.635147 14.77282C 43.292049 14.77282 44.635147 16.11598 44.635147 17.77282L 44.635147 41.052551ZM 16.948824 38.497601C 22.046276 25.691502 24.043255 21.32305 27.095949 22.798105C 31.741751 25.043049 20.620646 38.322399 26.2486 38.757851C 30.5944 39.094147 30.994751 28.787951 34.29055 30.65785C 36.3484 31.8256 33.285252 36.882099 35.32885 38.261497C 36.963852 39.3652 38.404449 37.162903 38.983452 35.570503M 10 10M 19.064816 11.44873L 19.064816 18.097075M 10 10M 28.000301 11.44873L 28.000301 18.097075M 10 10M 36.935951 11.44873L 36.935951 18.097075"></path></g></g></g><g id="g-root-2_hznl2dlz27m3-stroke" data-item-order="0" transform="translate(536, 163.99993896484375)"><g id="2_hznl2dlz27m3-stroke" fill="none" stroke-linecap="round" stroke-linejoin="round" stroke-miterlimit="4" stroke="#ffffff" stroke-width="2"><g><path d="M 44.875 26.738949L 44.875 17.875C 44.875 16.674999 43.824997 15.625 42.625 15.625L 13.375 15.625C 12.175 15.625 11.125 16.674999 11.125 17.875L 11.125 42.625C 11.125 43.824997 12.175 44.875 13.375 44.875L 22.048691 44.875M 11.125 24.625L 44.875 24.625M 11.125 31.375L 35.875 31.375M 11.125 38.125L 22.24024 38.125M 20.125 18.924999L 20.125 11.125M 10 10M 22.24024 38.125L 22.24024 24.625M 35.875 18.924999L 35.875 11.125M 42.625 31.375L 35.875 41.5L 44.875 41.5M 10 10M 42.623501 31.375L 42.623501 44.875M 10 10M 26.160101 39.192852L 31.842249 44.875M 10 10M 31.84075 39.192852L 26.158751 44.875"></path></g></g></g><g id="g-root-tx_weeklyop_qs67vplz25n0-stroke" data-item-order="0" transform="translate(614, 169.99993896484375)"></g><g id="g-root-tx_suitable_dgppidlz277z-stroke" data-item-order="0" transform="translate(14, 205.99993896484375)"></g><g id="g-root-tx_recommen_zn6r1hlz2803-stroke" data-item-order="0" transform="translate(614, 205.99993896484375)"></g><g id="g-root-modu_1ur682tlz268a-stroke" data-item-order="0" transform="translate(416, 247.99993896484375)"><g id="modu_1ur682tlz268a-stroke" fill="none" stroke-linecap="round" stroke-linejoin="round" stroke-miterlimit="4" stroke="#ffffff" stroke-width="2"><g><path d="M 25.75 40.75L 12.25 40.75C 11.421573 40.75 10.75 40.078426 10.75 39.25L 10.75 15.25C 10.75 14.421573 11.421573 13.75 12.25 13.75L 33.25 13.75C 34.078426 13.75 34.75 14.421573 34.75 15.25L 34.75 25.75M 16.75 16.75L 16.75 10.75M 22.75 16.75L 22.75 10.75M 28.75 16.75L 28.75 10.75M 40 39.25L 44.5 39.25C 44.5 39.25 45.25 39.25 45.25 40L 45.25 44.5C 45.25 44.5 45.25 45.25 44.5 45.25L 40 45.25C 40 45.25 39.25 45.25 39.25 44.5L 39.25 40C 39.25 40 39.25 39.25 40 39.25M 31 39.25L 35.5 39.25C 35.5 39.25 36.25 39.25 36.25 40L 36.25 44.5C 36.25 44.5 36.25 45.25 35.5 45.25L 31 45.25C 31 45.25 30.25 45.25 30.25 44.5L 30.25 40C 30.25 40 30.25 39.25 31 39.25M 35.5 30.25L 40 30.25C 40 30.25 40.75 30.25 40.75 31L 40.75 35.5C 40.75 35.5 40.75 36.25 40 36.25L 35.5 36.25C 35.5 36.25 34.75 36.25 34.75 35.5L 34.75 31C 34.75 31 34.75 30.25 35.5 30.25"></path></g></g></g><g id="g-root-tx_biweekly_dgppidlz277y-stroke" data-item-order="0" transform="translate(326, 325.99993896484375)"></g><g id="g-root-tx_idealfor_mccpr9lz26f9-stroke" data-item-order="0" transform="translate(314, 361.99993896484375)"></g></g></g></svg>