<svg width="182" height="28" viewBox="0 0 182 28" fill="none" xmlns="http://www.w3.org/2000/svg">
<path d="M13.6814 0L16.7531 9.45361H26.6932L18.6515 15.2963L21.7231 24.7499L13.6814 18.9072L5.63967 24.7499L8.71134 15.2963L0.669615 9.45361H10.6097L13.6814 0Z" fill="white"/>
<path d="M52.7711 0L55.8428 9.45361H65.7829L57.7412 15.2963L60.8128 24.7499L52.7711 18.9072L44.7294 24.7499L47.8011 15.2963L39.7593 9.45361H49.6995L52.7711 0Z" fill="white"/>
<path d="M89.9064 0L92.978 9.45361H102.918L94.8764 15.2963L97.9481 24.7499L89.9064 18.9072L81.8646 24.7499L84.9363 15.2963L76.8946 9.45361H86.8347L89.9064 0Z" fill="white"/>
<path d="M128.996 0L132.068 9.45361H142.008L133.966 15.2963L137.038 24.7499L128.996 18.9072L120.954 24.7499L124.026 15.2963L115.984 9.45361H125.924L128.996 0Z" fill="white"/>
<path d="M168.086 0L171.157 9.45361H181.097L173.056 15.2963L176.127 24.7499L168.086 18.9072L160.044 24.7499L163.116 15.2963L155.074 9.45361H165.014L168.086 0Z" fill="white"/>
</svg>
